<svg width="26" height="25" viewBox="0 0 26 25" fill="none" xmlns="http://www.w3.org/2000/svg">
<path d="M26 18.7692V20.066C26 21.1503 25.1226 22.0285 24.0392 22.0285H18.1395C17.3941 22.0285 16.663 22.2316 16.0246 22.6156L14.5009 23.5299L13.4316 24.2334C13.169 24.4066 12.8294 24.4066 12.5668 24.2334L11.4991 23.5299L9.97545 22.6156C9.33704 22.2316 8.60587 22.0285 7.86054 22.0285H1.96081C0.877412 22.0285 0 21.1503 0 20.066V18.7692C0 19.394 0.526761 19.9007 1.1746 19.9007H7.86054C8.60587 19.9007 9.33704 20.0959 9.97545 20.4642L11.4991 21.3455L12.5778 22.0333C12.8357 22.1969 13.1643 22.1969 13.4222 22.0333L14.4993 21.3455L16.023 20.4642C16.6614 20.0959 17.3926 19.9007 18.1379 19.9007H24.8238C25.4732 19.9007 25.9984 19.394 25.9984 18.7692H26Z" fill="#9BCD22"/>
<path d="M24.8254 0.421689C22.9432 0.376048 21.0642 0.316244 19.1898 0.423263C17.402 0.52556 15.2729 0.739599 13.7571 1.78304C13.3373 2.07262 13.0008 2.4881 13.0008 3.01533V22.3024L14.5009 21.3455L16.0246 20.4642C16.663 20.0959 17.3941 19.9007 18.1395 19.9007H24.8254C25.4748 19.9007 26 19.394 26 18.7692V1.55483C26 0.928456 25.4748 0.437427 24.8254 0.421689Z" fill="#F6F6E3"/>
<path d="M1.17617 0.421689C3.05836 0.376048 4.93741 0.316244 6.81173 0.423263C8.59958 0.52556 10.7286 0.739599 12.2445 1.78304C12.6643 2.07262 13.0008 2.4881 13.0008 3.01533V4.49156C13.0008 9.75911 13.0008 22.3024 13.0008 22.3024L11.5007 21.3455L9.97702 20.4642C9.33862 20.0959 8.60744 19.9007 7.86211 19.9007H1.17617C0.526761 19.9007 0.00157242 19.394 0.00157242 18.7692V1.55483C0.00157242 0.928456 0.526761 0.437427 1.17617 0.421689Z" fill="#FFFFF6"/>
</svg>
