<svg width="21" height="25" viewBox="0 0 21 25" fill="none" xmlns="http://www.w3.org/2000/svg">
<g clip-path="url(#clip0_1002_20807)">
<path d="M20.9969 14.043C20.9957 13.9598 20.9926 13.8767 20.9889 13.7935C20.9282 12.445 20.6121 11.1111 20.0281 9.88903C19.0289 7.80015 17.3368 6.12757 15.6769 4.50023C15.3366 4.16645 14.9963 3.83267 14.656 3.4995C13.7917 2.65099 12.9274 1.80369 12.0631 0.956402C11.7482 0.647073 11.3844 0.322461 10.9878 0.142121C10.7175 0.0192454 10.4317 -0.0363848 10.1353 0.0253587C9.57354 0.142732 9.18005 0.670914 9.03466 1.21988C8.90659 1.70283 8.93011 2.20778 8.94619 2.70906C8.94867 2.77692 8.95114 2.84539 8.95238 2.91324C8.9895 4.57604 8.68449 6.25106 8.01631 7.77814C7.94887 7.9328 7.84555 8.10948 7.6748 8.12048C7.46815 8.13332 7.34566 7.90163 7.27698 7.70845C7.12045 7.2628 6.96331 6.81714 6.80616 6.3721C6.69604 6.05788 6.63107 5.65563 6.35947 5.427C6.11076 5.21731 5.62448 5.23871 5.32565 5.28945C4.55725 5.41905 3.8736 5.91972 3.33658 6.45402C1.38092 8.3968 0.17696 11.064 0.0179585 13.7935C0.0117717 13.8993 0.00744091 14.0051 0.00434749 14.1108C-0.00555145 14.4642 0.00187276 14.8181 0.0278575 15.1709C0.262958 18.3626 2.00765 21.4271 4.68408 23.2293C5.86019 24.021 7.20583 24.5577 8.60344 24.8175C8.6121 24.8193 8.62138 24.8212 8.63004 24.823C9.22274 24.9318 9.82472 24.9911 10.4267 24.9997C10.4508 25.0003 10.4756 25.0003 10.5003 25.0003H10.5473C10.5709 25.0003 10.5937 24.9997 10.6166 24.9997C10.6272 24.9997 10.6377 24.9991 10.6476 24.9997C11.7754 24.9917 12.9002 24.8034 13.9631 24.4238C16.7193 23.4402 18.9714 21.2303 20.1196 18.5655C20.7321 17.1436 21.031 15.5878 20.9969 14.043ZM7.73976 21.3715C4.98909 19.5785 4.95444 15.8549 7.39762 13.7935C7.40814 13.7838 7.41928 13.7752 7.4298 13.766L10.3438 11.1166C10.6135 11.0371 10.7899 11.149 10.9971 11.2914C11.4939 11.6331 12.9014 13.0159 13.6507 13.7935C13.7874 13.9354 13.9019 14.0564 13.9854 14.1481C18.1083 18.6707 12.3867 24.4018 7.73976 21.3715Z" fill="#DEDFE0"/>
<path d="M7.73974 21.3712C4.98907 19.5782 4.95442 15.8546 7.39761 13.7932C7.40813 13.7835 7.41926 13.7749 7.42978 13.7657L10.3438 11.1163C10.6135 11.0368 10.7899 11.1487 10.9971 11.2911C11.4939 11.6328 12.9014 13.0156 13.6507 13.7932C13.7874 13.9351 13.9018 14.0561 13.9854 14.1478C18.1083 18.6704 12.3867 24.4015 7.73974 21.3712Z" fill="white"/>
<path d="M21 13.793C21 13.8761 20.9994 13.9599 20.9969 14.0424C20.9957 13.9592 20.9926 13.8761 20.9889 13.793H21Z" fill="#FF5E33"/>
</g>
<defs>
<clipPath id="clip0_1002_20807">
<rect width="21" height="25" fill="white"/>
</clipPath>
</defs>
</svg>
