<svg width="26" height="25" viewBox="0 0 26 25" fill="none" xmlns="http://www.w3.org/2000/svg">
<path d="M26 18.9059V20.2027C26 21.2871 25.1226 22.1653 24.0392 22.1653H18.1395C17.3941 22.1653 16.663 22.3683 16.0246 22.7523L14.5009 23.6667L13.4316 24.3702C13.169 24.5433 12.8294 24.5433 12.5668 24.3702L11.4991 23.6667L9.97545 22.7523C9.33704 22.3683 8.60587 22.1653 7.86054 22.1653H1.96081C0.877412 22.1653 0 21.2871 0 20.2027V18.9059C0 19.5307 0.526761 20.0375 1.1746 20.0375H7.86054C8.60587 20.0375 9.33704 20.2326 9.97545 20.6009L11.4991 21.4822L12.5778 22.17C12.8357 22.3337 13.1643 22.3337 13.4222 22.17L14.4993 21.4822L16.023 20.6009C16.6614 20.2326 17.3926 20.0375 18.1379 20.0375H24.8238C25.4732 20.0375 25.9984 19.5307 25.9984 18.9059H26Z" fill="#6696FF"/>
<path d="M24.8254 0.558408C22.9432 0.512767 21.0642 0.452962 19.1898 0.559981C17.402 0.662279 15.2729 0.876317 13.7571 1.91975C13.3373 2.20933 13.0008 2.62482 13.0008 3.15205V22.4391L14.5009 21.4822L16.0246 20.6009C16.663 20.2326 17.3941 20.0375 18.1395 20.0375H24.8254C25.4748 20.0375 26 19.5307 26 18.9059V1.69155C26 1.06517 25.4748 0.574146 24.8254 0.558408Z" fill="#CACBCC"/>
<path d="M1.17617 0.558408C3.05836 0.512767 4.93741 0.452962 6.81173 0.559981C8.59958 0.662279 10.7286 0.876317 12.2445 1.91975C12.6643 2.20933 13.0008 2.62482 13.0008 3.15205V4.62828C13.0008 9.89583 13.0008 22.4391 13.0008 22.4391L11.5007 21.4822L9.97702 20.6009C9.33861 20.2326 8.60744 20.0375 7.86211 20.0375H1.17617C0.526761 20.0375 0.00157242 19.5307 0.00157242 18.9059V1.69155C0.00157242 1.06517 0.526761 0.574146 1.17617 0.558408Z" fill="white"/>
</svg>
