<svg width="770" height="711" viewBox="0 0 770 711" fill="none" xmlns="http://www.w3.org/2000/svg">
<path d="M1 544.743V583.052C1 615.086 26.9172 641.029 58.9189 641.029H233.188C255.204 641.029 276.802 647.027 295.659 658.372L340.666 685.383L372.204 706.166C379.961 711.28 389.993 711.28 397.75 706.166L429.334 685.383L474.341 658.372C493.198 647.027 514.796 641.029 536.812 641.029H711.081C743.083 641.029 769 615.086 769 583.052V544.743H768.954V544.741H769V36.2007C769 17.6966 753.487 3.1902 734.305 2.72511C729.929 2.61899 725.553 2.51057 721.178 2.40187C669.971 1.12953 618.846 -0.140662 567.839 2.77199C515.029 5.79403 452.139 12.1171 407.364 42.9419C394.963 51.4966 385.023 63.7711 385.023 79.3462C385.023 63.7712 375.084 51.4966 362.683 42.9419C317.908 12.1171 255.018 5.79403 202.208 2.77199C151.201 -0.14069 100.075 1.12953 48.8682 2.40187C44.4934 2.51057 40.1181 2.61899 35.7422 2.72511C16.5596 3.19006 1.04689 17.6965 1.04688 36.2007V544.741" stroke="#9BCD22"/>
</svg>
