<svg width="378" height="106" viewBox="0 0 378 106" fill="none" xmlns="http://www.w3.org/2000/svg">
<path d="M105 100.682C105 103.067 103.067 105 100.682 105H4.31834C1.93339 105 0 103.067 0 100.682V4.31834C0 1.93339 1.93339 0 4.31835 0H100.682C103.067 0 105 1.93339 105 4.31835V100.682Z" fill="#9BCD22"/>
<path d="M240.641 101.611C240.641 103.996 238.707 105.93 236.322 105.93H139.959C137.574 105.93 135.641 103.996 135.641 101.611V5.24803C135.641 2.86307 137.574 0.929688 139.959 0.929688H236.322C238.707 0.929688 240.641 2.86308 240.641 5.24803V101.611Z" fill="#9BCD22"/>
<path d="M377.583 101.611C377.583 103.996 375.65 105.93 373.265 105.93H276.902C274.517 105.93 272.583 103.996 272.583 101.611V5.24803C272.583 2.86307 274.517 0.929688 276.902 0.929688H373.265C375.65 0.929688 377.583 2.86308 377.583 5.24803V101.611Z" fill="#9BCD22"/>
</svg>
