<svg width="873" height="216" viewBox="0 0 873 216" fill="none" xmlns="http://www.w3.org/2000/svg">
<path d="M105 201.627C105 204.042 103.044 206 100.631 206L4.36843 206C1.95582 206 4.76837e-06 204.042 4.76837e-06 201.627V100.311C2.4809 68.2036 24.9716 8.49574 100.251 0.0269955C102.787 -0.258338 105 1.75522 105 4.30995V35.1207C105 37.1512 103.604 38.8953 101.678 39.5332C86.6969 44.4949 61.7221 61.5175 57.2365 95.6228C56.9053 98.1408 58.9198 100.311 61.4571 100.311H100.631C103.044 100.311 105 102.268 105 104.683V201.627Z" fill="#9BCD22"/>
<path d="M768 14.3725C768 11.9577 769.956 10 772.369 10L868.632 10C871.044 10 873 11.9577 873 14.3725V115.689C870.519 147.796 848.028 207.504 772.749 215.973C770.213 216.258 768 214.245 768 211.69V180.879C768 178.849 769.396 177.105 771.322 176.467C786.303 171.505 811.278 154.482 815.764 120.377C816.095 117.859 814.08 115.689 811.543 115.689H772.369C769.956 115.689 768 113.732 768 111.317V14.3725Z" fill="#9BCD22"/>
</svg>
