<svg width="768" height="649" viewBox="0 0 768 649" fill="none" xmlns="http://www.w3.org/2000/svg">
<path d="M372.251 640.607L384.023 648.117L428.334 619.85L473.341 593.814C492.198 582.934 513.796 577.169 535.812 577.169H733.258C752.44 577.169 767.953 562.198 767.953 543.741H768V35.2004C768 16.6962 752.487 2.19039 733.304 1.72546C728.928 1.61934 724.553 1.51062 720.178 1.40192C668.971 0.129578 617.845 -1.14073 566.838 1.77195C514.028 4.794 451.139 11.117 406.364 41.9419C393.963 50.4966 384.023 62.7708 384.023 78.3459C384.023 62.7708 374.084 50.4966 361.682 41.9419C316.907 11.117 254.018 4.794 201.208 1.77195C150.201 -1.14073 99.0758 0.129578 47.8685 1.40192C43.4937 1.51062 39.1183 1.61934 34.7422 1.72546C15.5597 2.19039 0.0463867 16.6962 0.0463867 35.2004V543.741C0.0463867 562.198 15.5597 577.169 34.7422 577.169H232.188H232.235C254.25 577.169 275.848 582.934 294.706 593.814L339.713 619.85L372.251 640.607Z" fill="#F6F6E3"/>
</svg>
