<svg width="21" height="25" viewBox="0 0 21 25" fill="none" xmlns="http://www.w3.org/2000/svg">
<path d="M20.9969 14.043C20.9957 13.9598 20.9926 13.8767 20.9889 13.7935C20.9282 12.445 20.6121 11.1111 20.0281 9.88903C19.0289 7.80015 17.3368 6.12757 15.6768 4.50023C15.3366 4.16645 14.9963 3.83267 14.656 3.4995C13.7917 2.65099 12.9274 1.80369 12.0631 0.956402C11.7482 0.647073 11.3844 0.322461 10.9878 0.142121C10.7175 0.0192454 10.4316 -0.0363848 10.1353 0.0253587C9.57353 0.142732 9.18004 0.670914 9.03465 1.21988C8.90658 1.70283 8.93009 2.20778 8.94618 2.70906C8.94865 2.77692 8.95113 2.84539 8.95237 2.91324C8.98949 4.57604 8.68448 6.25106 8.0163 7.77814C7.94886 7.9328 7.84554 8.10948 7.67478 8.12048C7.46814 8.13332 7.34564 7.90163 7.27697 7.70845C7.12044 7.2628 6.9633 6.81714 6.80615 6.3721C6.69602 6.05788 6.63106 5.65563 6.35946 5.427C6.11075 5.21731 5.62446 5.23871 5.32564 5.28945C4.55723 5.41905 3.87359 5.91972 3.33657 6.45402C1.38091 8.3968 0.176949 11.064 0.0179471 13.7935C0.0117603 13.8993 0.00742947 14.0051 0.00433605 14.1108C-0.0055629 14.4642 0.00186131 14.8181 0.0278461 15.1709C0.262946 18.3626 2.00764 21.4271 4.68406 23.2293C5.86018 24.021 7.20582 24.5577 8.60343 24.8175C8.61209 24.8193 8.62137 24.8212 8.63003 24.823C9.22273 24.9318 9.82471 24.9911 10.4267 24.9997C10.4508 25.0003 10.4756 25.0003 10.5003 25.0003H10.5473C10.5708 25.0003 10.5937 24.9997 10.6166 24.9997C10.6271 24.9997 10.6377 24.9991 10.6476 24.9997C11.7754 24.9917 12.9002 24.8034 13.9631 24.4238C16.7193 23.4402 18.9713 21.2303 20.1196 18.5655C20.7321 17.1436 21.0309 15.5878 20.9969 14.043ZM7.73975 21.3715C4.98908 19.5785 4.95443 15.8549 7.39761 13.7935C7.40813 13.7838 7.41927 13.7752 7.42978 13.766L10.3438 11.1166C10.6135 11.0371 10.7899 11.149 10.9971 11.2914C11.4939 11.6331 12.9014 13.0159 13.6507 13.7935C13.7874 13.9354 13.9018 14.0564 13.9854 14.1481C18.1083 18.6707 12.3867 24.4018 7.73975 21.3715Z" fill="#DEDFE0"/>
</svg>
